<?xml version="1.0" encoding="utf-8"?>
<!-- Generator: Adobe Illustrator 24.3.0, SVG Export Plug-In . SVG Version: 6.00 Build 0)  -->
<svg version="1.1" id="Layer_1" xmlns="http://www.w3.org/2000/svg" xmlns:xlink="http://www.w3.org/1999/xlink" x="0px" y="0px"
	 viewBox="0 0 259.1 66.1" style="enable-background:new 0 0 259.1 66.1;" xml:space="preserve">
<style type="text/css">
	.st0{enable-background:new    ;}
	.st1{fill:#BE1E2D;}
	.st2{fill:#006838;}
	.st3{fill:#754C29;}
</style>
<g id="Layer_2_1_">
	<g id="Layer_1-2">
		<g class="st0">
			<path class="st1" d="M40.5,34.5c0,4-0.2,7.1,1.9,7.1s3.5-9,3.5-10.5c1-1,4,2.3,4,3.1c0,0.8-3.1,17.2-11.6,17.2
				c-4.3,0-7.6-1.9-8.8-7.7c-2.3,6.1-6.2,7.9-9.5,7.7c-4.5-0.2-7.9-4.4-7.3-17.5c0.7-14,8-17.6,12.2-17.5c2,0.1,3.4,0.6,4.4,1.7
				c0.1-0.7,0.2-1.2,0.4-1.3c0.6-0.7,10.7-0.9,12.1,0.5C42.4,17.8,40.5,25.1,40.5,34.5z M23.9,32.3c-0.1,3.2-0.8,8.9,1.4,9
				c1.3,0,3.3-3.9,3.5-8.8c0.2-4.9,0.4-8.9-1.6-9C25.9,23.4,24.1,27.4,23.9,32.3z"/>
			<path class="st1" d="M58.2,19.7c2.1-3.3,4.9-4.5,7.4-4.5c4.6,0,8.2,4.1,8.2,17.2c0,14-7,18-11.3,18c-2.6,0-4.3-0.7-5.4-2.5
				c0,4.1,0.1,7.4,0.4,8.8c-2,2-10.2,2.5-11.2,1.5c-1-1-1-39.9,0.3-41.2c1.3-1.3,11.6,0.3,11.6,1C58.3,18.2,58.2,19,58.2,19.7z
				 M62.5,34.2c0-4.9-0.2-8.9-2.5-8.9c-1.4,0-2.5,4-2.5,8.9c0,5,0.4,8.9,2.5,8.9C61.4,43.1,62.5,39.2,62.5,34.2z"/>
			<path class="st1" d="M88.4,19.7c2.1-3.3,4.9-4.5,7.4-4.5c4.6,0,8.2,4.1,8.2,17.2c0,14-7,18-11.3,18c-2.6,0-4.3-0.7-5.4-2.5
				c0,4.1,0.1,7.4,0.4,8.8c-2,2-10.2,2.5-11.2,1.5c-1-1-1-39.9,0.3-41.2c1.3-1.3,11.6,0.3,11.6,1C88.5,18.2,88.4,19,88.4,19.7z
				 M92.8,34.2c0-4.9-0.2-8.9-2.5-8.9c-1.4,0-2.5,4-2.5,8.9c0,5,0.4,8.9,2.5,8.9C91.6,43.1,92.8,39.2,92.8,34.2z"/>
			<path class="st1" d="M117.7,34.5c0,4-0.2,7.1,1.9,7.1c2.2,0,3.5-9,3.5-10.5c1-1,4,2.3,4,3.1c0,0.8-3.2,17.2-11.6,17.2
				c-5.5,0-9.4-3-9.4-13.6c0-12.2,0.3-28.4,1-29c0.7-0.7,10.7-0.9,12.1,0.5C119.8,9.8,117.7,25.1,117.7,34.5z"/>
			<path class="st1" d="M151.1,32.9c0,0.7-2.1,18.1-14.2,18.1c-10.6,0-14.6-5.2-14.6-17.2c0-11.2,3-18.6,12.2-18.6
				c10.4,0,9.6,10.1,9.5,11c0,6.1-3.5,9.2-7.3,9.2c-0.6,0-1.7,0.1-2.9,0.2c0.1,3.7,1,8.3,5,8.3c5.5,0,7.8-10.9,7.8-13
				C146.5,29.9,151.1,32.2,151.1,32.9z M133.8,31.6c0,0.2,0,0.6-0.1,1c2.3,0,3.4-2.1,3.7-4.2c0.2-2.2,0.8-6.8-1-6.8
				C134.2,21.7,133.8,28.9,133.8,31.6z"/>
			<path class="st1" d="M189.5,34.5c0,4-0.2,7.1,1.9,7.1s3.5-9,3.5-10.5c1-1,4,2.3,4,3.1c0,0.8-3.2,17.2-11.6,17.2
				c-3.6,0-6.5-1.3-8-5.1c-1,3.5-2.8,4.7-6.2,4.7c-4.3,0-11.3-4-11.3-18c0-13.1,5.2-17.2,9.7-17.2c2.5,0,5,1.3,6.7,4.8
				c0.1-6.5,0.4-11.5,0.8-11.8c0.7-0.7,10.7-0.9,12.1,0.5C191.6,9.8,189.5,25.1,189.5,34.5z M175.5,25.9c-2.2,0-2.5,4-2.5,8.9
				c0,5,1.1,8.9,2.5,8.9c2,0,2.5-4,2.5-8.9C178,29.9,176.9,25.9,175.5,25.9z"/>
			<path class="st1" d="M221.8,34.5c0,4-0.2,7.1,1.9,7.1s3.5-9,3.5-10.5c1-1,4,2.3,4,3.1c0,0.8-3.1,17.2-11.6,17.2
				c-4.3,0-7.6-1.9-8.8-7.7c-2.3,6.1-6.2,7.9-9.5,7.7c-4.5-0.2-7.9-4.4-7.3-17.5c0.7-14,8-17.6,12.2-17.5c2,0.1,3.4,0.6,4.4,1.7
				c0.1-0.7,0.2-1.2,0.4-1.3c0.6-0.7,10.7-0.9,12.1,0.5C223.7,17.8,221.8,25.1,221.8,34.5z M205.1,32.3c-0.1,3.2-0.8,8.9,1.4,9
				c1.3,0,3.3-3.9,3.5-8.8c0.2-4.9,0.4-8.9-1.6-9C207.1,23.4,205.3,27.4,205.1,32.3z"/>
			<path class="st1" d="M256,34.6c0.1,0.9,0,7.4,0,8.3c0,3.3,1.4,20.2-10,20.4c-6.4,0.1-9.2-3.2-9.2-5.4c0-1.3,0.6-1.9,0.8-1.9
				c0.9,0,1.9,2.6,3.4,2.6c2.8-0.1,3.2-3.7,3.3-13.4c-1.8,3.9-4.6,6.5-8.8,6.5c-6.8,0-8.5-8.9-8.5-17.1c0-7.3,0-14.6,1-15.9
				c2.2-2.2,11.8-1.1,11.8-0.1c0,1-1.9,21,1.2,21c2.2,0,3.1-10.9,3.5-17.4c0-0.8-0.2-4.4,0.5-5.1s10.7-1.1,12.1,0.2
				C257.6,17.8,255.8,25.3,256,34.6z"/>
		</g>
		<path class="st2" d="M18.9,16.2c0,0,0.1-7.2-5.6-9.4c0,0-9.6,0.8-13.2-1.9c0.6,3.4,3,6.3,6.3,7.4C12,14.3,17.2,13.1,18.9,16.2z"/>
		<path class="st2" d="M23,12.6c0,0,3.6,2.5,6.6,0.2c0,0,2.8-5.2,5.4-6.1c-2-0.9-4.2-0.6-5.9,0.7C26.3,9.8,25.2,12.8,23,12.6z"/>
		<path class="st3" d="M19.5,17.9c0.9-1.6,1.2-3.5,1-5.4c-0.4-3,1.1-2.3,1.1-2.3s2.2-1.6,1,1.6s0.4,5,0.4,5L19.5,17.9z"/>
	</g>
</g>
</svg>
