<svg xmlns="http://www.w3.org/2000/svg" viewBox="0 0 86.83 85.72"><defs><style>.cls-1{fill:#7c2818;}.cls-2{fill:#844941;}.cls-3{fill:#6d1b10;}.cls-4{fill:#58130c;}.cls-5{fill:#4c2e1a;}.cls-6{fill:#754c29;}.cls-7{fill:#efb1ab;}.cls-8{fill:#46120f;}</style></defs><g id="Layer_2" data-name="Layer 2"><g id="Layer_1-2" data-name="Layer 1"><path class="cls-1" d="M40.05,6.59s-13.64-3.93-20.46,2-9.18,9.31-9.18,12.59-2.36,6.55,0,14.68,8.92,22.43,13,25.44,3.15,6.17,16,1.31c0,0,4.07-1,6.69-.13s5.77,3.32,10.49,2.65,6.29-3.7,6.29-3.7,33.7-36.58.92-54.15c0,0-10-3.67-16.13,0s-.85,2.1-4.42,1.44S40.05,6.59,40.05,6.59Z"/><polygon class="cls-1" points="40.05 6.59 50.3 6.15 45.17 13.14 34.66 8.15 40.05 6.59"/><path class="cls-2" d="M21.54,38.14s.15-11.27,4.81-12.63-.53-14.57-5.71-6.61S18.76,36.33,21.54,38.14Z"/><path class="cls-3" d="M63.78,7.25s.69,11.22-2.52,14.67-7.15,4.94-6.91,9.38,2.72,12.58-1.72,17.27-7.4,8.88-13.32,9.86-18.47,0-18.47,0a11,11,0,0,0,2.55,2.84c2.1,1.86,21.45-.92,23.25-1.9s19.21-9.62,22.14-24.11L71.7,20.77s.35-4.65,1.21-2.41S76,40.18,75,42.51s6.41-9.82,1.4-22.67C76.37,19.84,74.1,11.28,63.78,7.25Z"/><path class="cls-4" d="M23.39,61.27A8.17,8.17,0,0,0,28.73,65c3.62.63,11.6-3.67,14.48-3.12s8.61,4.43,13.36,3.2S70.76,54.29,75,42.51c0,0,.72-21-2.06-24.15,0,0-.27-.78-.46-.61a11.29,11.29,0,0,0-.67,2s-2.49,6.16-2.3,7.48-2.78,9.18-2.78,9.18l-3,9s-5.22,8-6.76,8.1-11.85,6.22-11.85,6.22Z"/><path class="cls-3" d="M43.53,11.59a46.46,46.46,0,0,1-7.77-1.33c-3.51-1,2.51,2.36,2.51,2.36h7.44s7.61,1.07,9.37-1.27S43.53,11.59,43.53,11.59Z"/><path class="cls-4" d="M43.74,12.46a30,30,0,0,1-5.1-.87c-2.31-.66,1.65,1.56,1.65,1.56h4.88s5,.7,6.15-.84S43.74,12.46,43.74,12.46Z"/><path class="cls-5" d="M66.32,85.72s.22-11.31-8.91-14.79c0,0-15.22,1.31-20.88-3a15.13,15.13,0,0,0,10,11.74C55.45,82.67,63.71,80.72,66.32,85.72Z"/><path class="cls-5" d="M67.79,77.87s5.69,3.89,10.51.4c0,0,4.43-8.19,8.53-9.61a9.19,9.19,0,0,0-9.32,1.17C73,73.35,71.21,78.22,67.79,77.87Z"/><path class="cls-6" d="M42.12,12.64a14.35,14.35,0,0,0,1.6-8.47C43.08-.52,45.48.6,45.48.6S49-1.85,47.08,3.15s.57,7.86.57,7.86Z"/><path class="cls-4" d="M20.42,50.84s2.36.81,2.62,1,1.58-.77,1.4-4.1S20.42,50.84,20.42,50.84Z"/><path class="cls-7" d="M20.16,46.13s-4.34,3.35-9.42,2.35S-2.17,44,.56,46.75s16.22,4.71,17.35,4.46,4.37-.37,5.48-1.49S26.16,44.77,20.16,46.13Z"/><path class="cls-8" d="M75.38,22.89s-.57,2-2.1,2.09-1.49-3.19-1.49-3.19Z"/><path class="cls-7" d="M74.31,19.19S85,2.91,84.52,8.68s-9.14,14.21-9.14,14.21-4.36,1.64-3.59-1.1S74.31,19.19,74.31,19.19Z"/></g></g></svg>