<svg xmlns="http://www.w3.org/2000/svg" viewBox="0 0 80.25 89.75"><defs><style>.cls-1{fill:#be1e2d;}.cls-2{fill:#e9474c;}.cls-3{fill:#a91f23;}.cls-4,.cls-5{fill:#771214;}.cls-4{opacity:0.72;}.cls-6{fill:#006838;}.cls-7{fill:#754c29;}</style></defs><g id="Layer_2" data-name="Layer 2"><g id="Layer_1-2" data-name="Layer 1"><path class="cls-1" d="M35.82,21.18S19.9,16.59,11.94,23.47,1.22,34.34,1.22,38.17s-2.75,7.65,0,17.14S11.63,81.48,16.38,85s3.67,7.2,18.67,1.53c0,0,4.75-1.22,7.81-.15s6.73,3.88,12.24,3.09,7.35-4.31,7.35-4.31,39.34-42.71,1.07-63.22c0,0-11.63-4.28-18.83,0s-1,2.45-5.16,1.69S35.82,21.18,35.82,21.18Z"/><polygon class="cls-1" points="35.82 21.18 47.78 20.66 41.8 28.83 29.53 22.99 35.82 21.18"/><path class="cls-2" d="M14.22,58s.17-13.16,5.61-14.74-.61-17-6.67-7.71S11,55.89,14.22,58Z"/><path class="cls-3" d="M63.52,21.94s.8,13.1-2.94,17.13-8.35,5.76-8.06,11,3.16,14.68-2,20.15S41.86,80.54,35,81.69s-21.55,0-21.55,0a12.68,12.68,0,0,0,3,3.31c2.44,2.18,25-1.08,27.14-2.21S65.94,71.56,69.35,54.64l3.42-16.92s.4-5.42,1.4-2.81,3.64,25.47,2.42,28.19,7.47-11.46,1.62-26.46C78.21,36.64,75.57,26.65,63.52,21.94Z"/><path class="cls-4" d="M16.38,85a9.52,9.52,0,0,0,6.23,4.38c4.23.74,13.54-4.29,16.89-3.64s10.06,5.17,15.6,3.73S71.67,76.85,76.59,63.1c0,0,.83-24.54-2.42-28.19,0,0-.3-.91-.53-.7a12.35,12.35,0,0,0-.78,2.35S70,43.75,70.17,45.29,66.93,56,66.93,56l-3.5,10.5s-6.1,9.33-7.9,9.45S41.7,83.23,41.7,83.23Z"/><path class="cls-3" d="M39.88,27a53.83,53.83,0,0,1-9.07-1.55c-4.1-1.17,2.93,2.76,2.93,2.76h8.68s8.89,1.25,10.94-1.49S39.88,27,39.88,27Z"/><path class="cls-5" d="M40.13,28a35.41,35.41,0,0,1-6-1c-2.69-.77,1.93,1.82,1.93,1.82h5.7s5.83.82,7.18-1S40.13,28,40.13,28Z"/><path class="cls-6" d="M37,20.81s.26-13.2-10.4-17.26c0,0-17.77,1.53-24.37-3.55A17.66,17.66,0,0,0,13.9,13.7C24.3,17.26,34,15,37,20.81Z"/><path class="cls-6" d="M44.69,14.15s6.64,4.54,12.27.47c0,0,5.17-9.56,10-11.23A10.79,10.79,0,0,0,56,4.76C50.75,8.88,48.69,14.55,44.69,14.15Z"/><path class="cls-7" d="M38.24,23.85A16.83,16.83,0,0,0,40.11,14c-.75-5.48,2-4.17,2-4.17s4.1-2.86,1.87,3,.66,9.17.66,9.17Z"/></g></g></svg>