<svg id="Layer_1" data-name="Layer 1" xmlns="http://www.w3.org/2000/svg" viewBox="0 0 47.99 47.99"><defs><style>.cls-1{fill:#824559;fill-rule:evenodd;}</style></defs><path class="cls-1" d="M72,52H68a2,2,0,0,1,0-4h4a2,2,0,0,1,0,4ZM64.14,38.69a2,2,0,0,1-2.83-2.83L64.14,33A2,2,0,1,1,67,35.86ZM50,62A12,12,0,1,1,62,50,12,12,0,0,1,50,62Zm0-20a8,8,0,1,0,8,8A8,8,0,0,0,50,42Zm0-8a2,2,0,0,1-2-2V28a2,2,0,0,1,4,0v4A2,2,0,0,1,50,34ZM35.86,38.69,33,35.86A2,2,0,0,1,35.86,33l2.83,2.83a2,2,0,0,1-2.83,2.83ZM34,50a2,2,0,0,1-2,2H28a2,2,0,0,1,0-4h4A2,2,0,0,1,34,50Zm1.86,11.31a2,2,0,0,1,2.83,2.83L35.86,67A2,2,0,1,1,33,64.14ZM50,66a2,2,0,0,1,2,2v4a2,2,0,0,1-4,0V68A2,2,0,0,1,50,66Zm14.14-4.69L67,64.14A2,2,0,1,1,64.14,67l-2.83-2.83a2,2,0,0,1,2.83-2.83Z" transform="translate(-26 -26)"/></svg>